<svg id="White" xmlns="http://www.w3.org/2000/svg" viewBox="0 0 431.88 670.82"><path d="M130.05,245.16l-5-26.94H309.09l-4.78,26.94Zm181-33.94,25.16-141.8-69.64,100L216.38.82,166.14,169.38,96.41,69.3,122.9,211.22ZM432.3,132.54l-.12,539.09h-39l.12-391.29c0-11.63,0-23.27.69-36.95-8.9,15.74-26,39-39,58.16l-27.81,38.64c31,29.94,49.91,72.58,49.91,120,0,91.85-68.88,164.26-160.72,164.26S55.64,552.07,55.64,460.22c0-47.44,18.93-90.26,50.16-120.28L52.54,265.29l-14.37-21.9a352,352,0,0,1,1.37,36.95l-.12,391.29H.42L.54,132.54h.69L134.1,318.32a162.53,162.53,0,0,1,164.3-.12L431.62,132.54ZM148.07,337.84l68,95.09,68.36-95.27c-19.5-11.39-42.54-17.85-68.08-17.85S167.69,326.34,148.07,337.84Zm164.7,22.35L216.08,494.51,120.1,360C95.93,385.3,81.69,420.63,81.69,460.22c0,79,56.08,140.41,134.67,140.41,79,0,134.23-61.37,134.23-140.41C350.59,420.74,336.66,385.49,312.77,360.19Z" transform="translate(-0.42 -0.82)" style="fill:#c3ced6"/></svg>